<svg width="133" height="70" viewBox="0 0 133 70" fill="none" xmlns="http://www.w3.org/2000/svg">
<g filter="url(#filter0_d_78_70)">
<path d="M28.5777 8.1196L13.105 19.4598C13.2264 19.3237 13.5222 18.9911 13.9924 18.4619C14.4779 17.9327 15.0164 17.3279 15.608 16.6474C16.1996 15.967 16.7912 15.2715 17.3828 14.5608C17.9744 13.8351 18.4446 13.2227 18.7935 12.7237C19.2031 12.1492 19.5444 11.5746 19.8175 11C20.0905 10.4254 20.3029 9.91135 20.4546 9.45774L20.7731 8.1196H20.8414L20.8641 8.09692H28.5777L28.555 8.1196H28.5777ZM20.1588 35.4949L43.5953 18.3938C42.3515 19.5279 41.1379 20.6543 39.9547 21.7732C39.2721 22.4385 38.6881 23.0055 38.2026 23.4743C37.7324 23.943 37.2546 24.4344 36.7691 24.9485C36.2837 25.4626 35.8059 25.9767 35.3356 26.4908C34.8806 27.0048 34.471 27.4963 34.1069 27.965L24.8006 41.4145H15.881L20.1588 35.4949ZM36.3141 8.09692C36.3292 8.09692 36.4733 8.09692 36.7464 8.09692C37.0346 8.09692 37.4063 8.09692 37.8613 8.09692C38.3164 8.09692 38.8246 8.10448 39.3859 8.1196C39.9623 8.1196 40.5539 8.1196 41.1607 8.1196C42.5562 8.1196 44.1414 8.1196 45.9162 8.1196L44.8013 12.5196L40.5236 18.6887L17.8151 35.2454C18.9983 34.1719 20.1436 33.1059 21.251 32.0475C21.9032 31.4275 22.4493 30.8983 22.8892 30.4598C23.3291 30.0062 23.7766 29.5451 24.2317 29.0763C24.702 28.6076 25.157 28.1389 25.597 27.6701C26.0369 27.2014 26.4313 26.7554 26.7802 26.332L35.4039 14.4248H22.1611L41.8205 0C40.1367 1.51203 38.7563 2.8653 37.6793 4.0598C36.9967 4.77045 36.5037 5.33746 36.2003 5.76083C35.8969 6.16908 35.677 6.54709 35.5404 6.89485C35.4039 7.24262 35.3812 7.52991 35.4722 7.75671C35.5632 7.98352 35.8438 8.09692 36.3141 8.09692Z" fill="#CBCBDB"/>
<path d="M56.6334 18.9835L56.6106 19.1423H48.1916L48.2599 18.8701C48.6846 17.1918 49.3976 15.6646 50.3988 14.2887C51.3999 12.9127 52.5831 11.7333 53.9484 10.7505C55.3136 9.76771 56.8078 9.0117 58.4309 8.48249C60.0692 7.93816 61.7378 7.66599 63.4368 7.66599C64.1194 7.66599 64.8551 7.70379 65.6439 7.77939C66.4327 7.85499 67.2064 7.99864 67.9648 8.21032C68.7233 8.422 69.4362 8.71685 70.1037 9.09486C70.7711 9.45774 71.34 9.92647 71.8102 10.501L59.8644 19.2557C60.0009 19.1347 60.2057 18.9533 60.4788 18.7114C60.767 18.4694 61.0704 18.1973 61.3889 17.8949C61.7075 17.5925 62.026 17.2749 62.3446 16.9423C62.6632 16.6096 62.9286 16.2846 63.141 15.967C63.3685 15.6495 63.5278 15.3547 63.6188 15.0825C63.7098 14.8103 63.6947 14.5911 63.5733 14.4248C63.2851 14.2584 62.9969 14.145 62.7087 14.0846C62.4204 14.0241 62.1095 13.9938 61.7757 13.9938C61.0931 13.9938 60.4712 14.145 59.9099 14.4474C59.3487 14.7347 58.8481 15.1203 58.4082 15.6041C57.9683 16.0729 57.5966 16.6096 57.2932 17.2145C56.9898 17.8041 56.7699 18.3938 56.6334 18.9835ZM64.3697 17.532L79.2508 6.64537C79.1143 6.76633 78.7654 7.1141 78.2041 7.68867C77.6428 8.26324 77.0209 8.99658 76.3383 9.88867C75.6708 10.7808 75.0185 11.8014 74.3814 12.9505C73.7595 14.0997 73.312 15.3017 73.039 16.5567C72.8114 17.5093 72.5384 18.3712 72.2198 19.1423C71.9013 19.8983 71.5296 20.6165 71.1049 21.2969C70.6801 21.9774 70.1871 22.6351 69.6259 23.2701C69.0798 23.8901 68.4654 24.5327 67.7828 25.198C67.085 25.8784 66.19 26.6722 65.0978 27.5794C64.0208 28.4715 62.7618 29.4846 61.3207 30.6186L56.11 35.132H62.8452L48.5785 45.5423C48.6998 45.4365 48.8818 45.2702 49.1245 45.0434C49.3824 44.8166 49.6555 44.5595 49.9437 44.2722C50.2319 43.9849 50.5125 43.6901 50.7856 43.3877C51.0738 43.0853 51.3089 42.798 51.491 42.5258C51.6882 42.2688 51.8171 42.0344 51.8778 41.8227C51.9385 41.6262 51.8929 41.4977 51.7413 41.4372H43.3678L44.6875 36.1299L58.5219 24.9938C58.977 24.6007 59.5231 24.1093 60.1602 23.5196C60.7973 22.9299 61.4117 22.3024 62.0033 21.6371C62.5949 20.9567 63.1106 20.2688 63.5506 19.5732C64.0056 18.8626 64.2787 18.1822 64.3697 17.532ZM69.7624 31.6846C69.1708 32.244 68.6626 32.7581 68.2379 33.2268C67.98 33.5141 67.7828 33.7485 67.6463 33.9299C67.5097 34.0963 67.396 34.2626 67.305 34.4289C67.2139 34.5801 67.1533 34.7238 67.1229 34.8598C67.0926 34.9808 67.1229 35.0715 67.2139 35.132H69.3073L67.7373 41.4372H56.3831L69.7624 31.6846Z" fill="#CBCBDB"/>
<path d="M78.6819 34.1567C78.6668 34.0963 78.6592 33.9904 78.6592 33.8392C78.553 32.1155 78.7729 30.1423 79.319 27.9196L80.8208 21.9093C81.3062 19.9285 81.9888 18.0839 82.8687 16.3753C83.7637 14.6516 84.8558 13.1622 86.1452 11.9072C87.4346 10.6522 88.9288 9.66943 90.6278 8.95877C92.3419 8.233 94.2684 7.87011 96.4073 7.87011C97.5601 7.87011 98.6447 7.99864 99.6611 8.25568C100.677 8.49761 101.588 8.88317 102.392 9.41238C103.196 9.94159 103.871 10.622 104.417 11.4536C104.978 12.2852 105.372 13.2832 105.6 14.4474L94.0409 22.9072C94.056 22.8921 94.2153 22.7636 94.5187 22.5217C94.8221 22.2798 95.1634 21.9773 95.5426 21.6145C95.937 21.2365 96.3087 20.8206 96.6576 20.367C97.0216 19.9134 97.2719 19.4674 97.4084 19.0289C97.6208 17.6076 97.6056 16.5189 97.3629 15.7629C97.0444 14.7045 96.2404 14.1753 94.951 14.1753C94.1167 14.1753 93.3962 14.3794 92.7894 14.7876C92.1978 15.1959 91.6896 15.7175 91.2649 16.3526C90.8401 16.9725 90.4912 17.6605 90.2182 18.4165C89.9603 19.1574 89.7404 19.8681 89.5583 20.5485L87.8518 27.4433L78.6819 34.1567ZM114.588 9.48042C113.04 10.9622 111.63 12.3911 110.355 13.767C109.597 14.5835 108.983 15.2715 108.512 15.8309C108.042 16.3753 107.602 16.9347 107.193 17.5093C106.783 18.0839 106.419 18.6433 106.1 19.1877C105.797 19.7169 105.592 20.1932 105.486 20.6165C105.456 20.7072 105.425 20.798 105.395 20.8887C105.38 20.9794 105.357 21.0626 105.327 21.1382C105.296 21.2894 105.259 21.4406 105.213 21.5918C105.183 21.7279 105.152 21.8791 105.122 22.0454L103.643 28.0103C103.158 29.9911 102.467 31.8358 101.572 33.5444C100.693 35.253 99.608 36.7423 98.3186 38.0124C97.0292 39.2674 95.535 40.2578 93.8361 40.9836C92.1371 41.6942 90.2182 42.0495 88.0793 42.0495C86.6989 42.0495 85.4019 41.8757 84.1884 41.5279C82.9748 41.1952 81.8675 40.53 80.8663 39.532C80.6539 39.3203 80.3961 39.1767 80.0927 39.1011C79.8045 39.0104 79.4632 38.965 79.0688 38.965C78.6288 38.965 78.151 39.0179 77.6353 39.1238C77.1195 39.2296 76.5886 39.3732 76.0425 39.5547C75.5116 39.721 74.973 39.9176 74.4269 40.1444C73.8809 40.3561 73.3499 40.5753 72.8342 40.8021C71.6661 41.3464 70.4753 41.9664 69.2618 42.6619L114.588 9.48042ZM95.8612 25.5609C95.8915 25.3643 95.8536 25.2207 95.7474 25.1299C95.6412 25.0241 95.4971 24.9712 95.3151 24.9712C94.8903 24.9712 94.4353 25.1677 93.9498 25.5609C93.6161 25.8028 93.1762 26.1279 92.6301 26.5361C92.084 26.9292 91.5303 27.3375 90.9691 27.7609C90.423 28.1842 89.9072 28.5774 89.4218 28.9402C88.9516 29.3031 88.6178 29.5753 88.4206 29.7567C88.2234 29.9231 88.0338 30.0818 87.8518 30.233C87.6849 30.3691 87.5332 30.5128 87.3967 30.664C87.2754 30.8152 87.1767 30.989 87.1009 31.1856C87.0251 31.3671 86.9795 31.5939 86.9644 31.866C86.8734 32.864 86.9189 33.6427 87.1009 34.2021C87.4346 35.2303 88.2462 35.7444 89.5356 35.7444C90.4002 35.7444 91.1359 35.5251 91.7427 35.0866C92.3646 34.6482 92.8804 34.0963 93.29 33.431C93.7147 32.7657 94.056 32.0399 94.3139 31.2537C94.587 30.4674 94.8145 29.7341 94.9965 29.0536L95.8612 25.5609Z" fill="#CBCBDB"/>
<path d="M117.484 23.4385C115.899 23.4385 114.486 23.1134 113.243 22.4631C112.031 21.7818 111.068 20.8528 110.354 19.6761C109.67 18.4994 109.329 17.1523 109.329 15.635C109.329 14.1176 109.67 12.7706 110.354 11.5939C111.068 10.4172 112.031 9.48817 113.243 8.80691C114.486 8.12565 115.899 7.78502 117.484 7.78502C119.099 7.78502 120.513 8.12565 121.724 8.80691C122.936 9.4572 123.883 10.3707 124.567 11.5474C125.25 12.7242 125.592 14.0867 125.592 15.635C125.592 17.1523 125.25 18.4994 124.567 19.6761C123.883 20.8528 122.936 21.7818 121.724 22.4631C120.513 23.1134 119.099 23.4385 117.484 23.4385ZM117.484 19.1187C118.136 19.1187 118.726 18.9794 119.254 18.7007C119.814 18.422 120.249 18.0194 120.559 17.493C120.87 16.9665 121.025 16.3472 121.025 15.635C121.025 14.5202 120.683 13.6531 120 13.0338C119.317 12.3835 118.478 12.0584 117.484 12.0584C116.521 12.0584 115.682 12.3835 114.967 13.0338C114.284 13.6531 113.942 14.5202 113.942 15.635C113.942 16.6878 114.284 17.5394 114.967 18.1897C115.682 18.809 116.521 19.1187 117.484 19.1187Z" fill="#CBCBDB"/>
<path d="M13.5807 58.93H12.5191L12.0079 53.7305C11.9905 53.5563 11.973 53.3647 11.9555 53.1557C11.938 52.9467 11.9162 52.7377 11.89 52.5286C11.8725 52.3109 11.855 52.1019 11.8376 51.9016C11.8201 51.7013 11.807 51.5227 11.7982 51.366H11.7589C11.6541 51.7143 11.5317 52.1062 11.3919 52.5417C11.2521 52.9772 11.1211 53.3778 10.9988 53.7436L9.25562 58.93H8.31197L6.56883 53.5999C6.45524 53.2602 6.32855 52.8901 6.18875 52.4895C6.05769 52.0888 5.9441 51.7143 5.84799 51.366H5.79556C5.76935 51.7317 5.73877 52.1062 5.70382 52.4895C5.6776 52.864 5.64265 53.2297 5.59897 53.5868L5.0485 58.93H4L5.0354 50.0204H6.35913L8.29886 55.7554C8.3775 55.9819 8.4605 56.2519 8.54788 56.5654C8.64399 56.8702 8.72263 57.1446 8.78379 57.3884H8.83622C8.89738 57.1446 8.97602 56.8702 9.07213 56.5654C9.16824 56.2519 9.25562 55.9819 9.33426 55.7554L11.2871 50.0204H12.5977L13.5807 58.93Z" fill="#CBCBDB"/>
<path d="M21.188 58.93H20.1526V58.0939H20.1264C19.8992 58.3726 19.5934 58.6208 19.2089 58.8385C18.8245 59.0475 18.3657 59.1521 17.8328 59.1521C17.4046 59.1521 16.994 59.0737 16.6008 58.9169C16.2163 58.7601 15.8756 58.5337 15.5785 58.2376C15.2814 57.9415 15.0455 57.5887 14.8707 57.1794C14.696 56.7701 14.6086 56.3085 14.6086 55.7946C14.6086 55.3156 14.6916 54.8714 14.8576 54.4621C15.0236 54.0528 15.2552 53.7 15.5523 53.4039C15.8493 53.1078 16.1945 52.877 16.5877 52.7115C16.9896 52.5461 17.4265 52.4633 17.8983 52.4633C18.1866 52.4633 18.4444 52.4982 18.6716 52.5678C18.8987 52.6375 19.1041 52.7246 19.2876 52.8291C19.471 52.9336 19.6327 53.0512 19.7725 53.1818C19.9123 53.3125 20.0346 53.4431 20.1395 53.5738H20.1526V52.6723H21.188V58.93ZM15.6833 55.7946C15.6833 56.0995 15.727 56.3999 15.8144 56.696C15.9105 56.9834 16.0547 57.2404 16.2469 57.4668C16.4391 57.6933 16.6794 57.8805 16.9677 58.0286C17.2561 58.1679 17.5925 58.2376 17.9769 58.2376C18.274 58.2376 18.558 58.181 18.8288 58.0677C19.0997 57.9458 19.34 57.7803 19.5497 57.5713C19.7594 57.3536 19.9254 57.101 20.0477 56.8136C20.1788 56.5175 20.2443 56.1909 20.2443 55.8338C20.2443 55.4593 20.1831 55.124 20.0608 54.8279C19.9472 54.5231 19.7856 54.2618 19.5759 54.0441C19.3749 53.8263 19.139 53.6609 18.8682 53.5476C18.5973 53.4257 18.309 53.3647 18.0031 53.3647C17.6099 53.3647 17.2648 53.4344 16.9677 53.5738C16.6794 53.7131 16.4391 53.9004 16.2469 54.1355C16.0634 54.3619 15.9236 54.6232 15.8275 54.9193C15.7314 55.2067 15.6833 55.4985 15.6833 55.7946Z" fill="#CBCBDB"/>
<path d="M26.2525 53.4562C26.1739 53.4388 26.0865 53.4257 25.9904 53.417C25.903 53.3996 25.7894 53.3909 25.6496 53.3909C25.4225 53.3909 25.2084 53.4344 25.0074 53.5215C24.8152 53.5999 24.6448 53.7305 24.4963 53.9134C24.3565 54.0876 24.2429 54.3184 24.1555 54.6058C24.0769 54.8845 24.0376 55.2198 24.0376 55.6117V58.93H23.0022V52.6723H24.0376V53.4562H24.0638C24.1162 53.3517 24.1905 53.2428 24.2866 53.1296C24.3914 53.0077 24.5137 52.8988 24.6535 52.803C24.8021 52.7072 24.9637 52.6288 25.1385 52.5678C25.322 52.4982 25.5186 52.4633 25.7283 52.4633C25.9292 52.4633 26.104 52.4764 26.2525 52.5025V53.4562Z" fill="#CBCBDB"/>
<path d="M26.8003 52.6723H27.626V50.6736H28.6614V52.6723H30.339V53.5346H28.6614V56.8397C28.6614 57.0923 28.6789 57.3057 28.7138 57.4799C28.7575 57.6454 28.8187 57.776 28.8973 57.8718C28.9847 57.9676 29.0895 58.0373 29.2119 58.0808C29.3342 58.1157 29.4784 58.1331 29.6444 58.1331C29.8978 58.1331 30.1512 58.0982 30.4045 58.0286V58.8777C30.1424 58.9648 29.8191 59.0084 29.4347 59.0084C29.0502 59.0084 28.74 58.9517 28.5041 58.8385C28.2682 58.7166 28.0847 58.5555 27.9537 58.3552C27.8226 58.1461 27.7352 57.911 27.6915 57.6497C27.6479 57.3797 27.626 57.0967 27.626 56.8006V53.5346H26.8003V52.6723Z" fill="#CBCBDB"/>
<path d="M31.6799 52.6723H32.7153V58.93H31.6799V52.6723ZM31.562 49.9551H32.8464V51.17H31.562V49.9551Z" fill="#CBCBDB"/>
<path d="M40.6682 58.93H39.6328V58.0939H39.6066C39.3794 58.3726 39.0736 58.6208 38.6891 58.8385C38.3047 59.0475 37.846 59.1521 37.313 59.1521C36.8848 59.1521 36.4742 59.0737 36.081 58.9169C35.6965 58.7601 35.3558 58.5337 35.0587 58.2376C34.7616 57.9415 34.5257 57.5887 34.351 57.1794C34.1762 56.7701 34.0888 56.3085 34.0888 55.7946C34.0888 55.3156 34.1718 54.8714 34.3379 54.4621C34.5039 54.0528 34.7354 53.7 35.0325 53.4039C35.3296 53.1078 35.6747 52.877 36.0679 52.7115C36.4698 52.5461 36.9067 52.4633 37.3785 52.4633C37.6669 52.4633 37.9246 52.4982 38.1518 52.5678C38.379 52.6375 38.5843 52.7246 38.7678 52.8291C38.9513 52.9336 39.1129 53.0512 39.2527 53.1818C39.3925 53.3125 39.5148 53.4431 39.6197 53.5738H39.6328V52.6723H40.6682V58.93ZM35.1636 55.7946C35.1636 56.0995 35.2072 56.3999 35.2946 56.696C35.3907 56.9834 35.5349 57.2404 35.7271 57.4668C35.9193 57.6933 36.1596 57.8805 36.448 58.0286C36.7363 58.1679 37.0727 58.2376 37.4572 58.2376C37.7542 58.2376 38.0382 58.181 38.3091 58.0677C38.5799 57.9458 38.8202 57.7803 39.0299 57.5713C39.2396 57.3536 39.4056 57.101 39.5279 56.8136C39.659 56.5175 39.7245 56.1909 39.7245 55.8338C39.7245 55.4593 39.6634 55.124 39.5411 54.8279C39.4275 54.5231 39.2658 54.2618 39.0561 54.0441C38.8552 53.8263 38.6192 53.6609 38.3484 53.5476C38.0775 53.4257 37.7892 53.3647 37.4834 53.3647C37.0902 53.3647 36.745 53.4344 36.448 53.5738C36.1596 53.7131 35.9193 53.9004 35.7271 54.1355C35.5436 54.3619 35.4038 54.6232 35.3077 54.9193C35.2116 55.2067 35.1636 55.4985 35.1636 55.7946Z" fill="#CBCBDB"/>
<path d="M42.4824 49.5239H43.5178V58.93H42.4824V49.5239Z" fill="#CBCBDB"/>
<path d="M51.4313 50.0204H52.4012L55.9399 58.93H54.7472L53.8298 56.5262H49.8717L48.9411 58.93H47.7878L51.4313 50.0204ZM50.2386 55.5595H53.4628L52.5191 53.0512C52.4755 52.9293 52.423 52.7943 52.3619 52.6462C52.3094 52.4895 52.2526 52.3283 52.1915 52.1629C52.1391 51.9974 52.0866 51.8363 52.0342 51.6795C51.9818 51.5227 51.9381 51.379 51.9031 51.2484H51.8507C51.807 51.3877 51.759 51.5358 51.7065 51.6926C51.6541 51.8493 51.5973 52.0104 51.5362 52.1759C51.4837 52.3327 51.4269 52.4895 51.3658 52.6462C51.3134 52.7943 51.2609 52.9336 51.2085 53.0643L50.2386 55.5595Z" fill="#CBCBDB"/>
<path d="M60.1829 53.4562C60.1043 53.4388 60.0169 53.4257 59.9208 53.417C59.8334 53.3996 59.7198 53.3909 59.58 53.3909C59.3529 53.3909 59.1388 53.4344 58.9378 53.5215C58.7456 53.5999 58.5752 53.7305 58.4267 53.9134C58.2869 54.0876 58.1733 54.3184 58.0859 54.6058C58.0073 54.8845 57.968 55.2198 57.968 55.6117V58.93H56.9326V52.6723H57.968V53.4562H57.9942C58.0466 53.3517 58.1209 53.2428 58.217 53.1296C58.3218 53.0077 58.4442 52.8988 58.584 52.803C58.7325 52.7072 58.8941 52.6288 59.0689 52.5678C59.2524 52.4982 59.449 52.4633 59.6587 52.4633C59.8596 52.4633 60.0344 52.4764 60.1829 52.5025V53.4562Z" fill="#CBCBDB"/>
<path d="M60.7307 52.6723H61.5564V50.6736H62.5918V52.6723H64.2694V53.5346H62.5918V56.8397C62.5918 57.0923 62.6093 57.3057 62.6442 57.4799C62.6879 57.6454 62.7491 57.776 62.8277 57.8718C62.9151 57.9676 63.02 58.0373 63.1423 58.0808C63.2646 58.1157 63.4088 58.1331 63.5748 58.1331C63.8282 58.1331 64.0816 58.0982 64.335 58.0286V58.8777C64.0728 58.9648 63.7495 59.0084 63.3651 59.0084C62.9806 59.0084 62.6705 58.9517 62.4345 58.8385C62.1986 58.7166 62.0151 58.5555 61.8841 58.3552C61.753 58.1461 61.6656 57.911 61.622 57.6497C61.5783 57.3797 61.5564 57.0967 61.5564 56.8006V53.5346H60.7307V52.6723Z" fill="#CBCBDB"/>
<path d="M68.5593 54.1747C68.5069 53.9308 68.3889 53.7305 68.2054 53.5738C68.0219 53.417 67.8035 53.3386 67.5501 53.3386C67.2268 53.3386 66.9778 53.4213 66.803 53.5868C66.637 53.7523 66.554 53.9483 66.554 54.1747C66.554 54.2705 66.5671 54.3663 66.5933 54.4621C66.6283 54.5492 66.6938 54.6363 66.7899 54.7234C66.886 54.8105 67.0171 54.9019 67.1831 54.9977C67.3579 55.0848 67.5894 55.1719 67.8777 55.259C68.2272 55.3722 68.5156 55.5029 68.7428 55.6509C68.9787 55.7903 69.1665 55.947 69.3063 56.1212C69.4461 56.2867 69.5466 56.4652 69.6078 56.6568C69.6689 56.8484 69.6995 57.0488 69.6995 57.2578C69.6995 57.8326 69.5073 58.2942 69.1228 58.6426C68.7384 58.9822 68.2229 59.1521 67.5763 59.1521C67.2268 59.1521 66.921 59.1042 66.6589 59.0084C66.3967 58.9126 66.1739 58.7819 65.9904 58.6164C65.807 58.4423 65.6584 58.2419 65.5448 58.0155C65.4312 57.7803 65.3482 57.5278 65.2958 57.2578H66.3443C66.4055 57.5365 66.5322 57.776 66.7244 57.9763C66.9254 58.1679 67.2224 58.2637 67.6156 58.2637C67.9651 58.2637 68.2272 58.1766 68.402 58.0024C68.5768 57.8195 68.6641 57.5975 68.6641 57.3362C68.6641 57.2055 68.6467 57.0836 68.6117 56.9704C68.5768 56.8572 68.5069 56.7483 68.402 56.6438C68.2971 56.5393 68.153 56.4435 67.9695 56.3564C67.786 56.2606 67.5501 56.1648 67.2618 56.069C66.6676 55.8774 66.2307 55.6292 65.9511 55.3243C65.6715 55.0195 65.5317 54.6319 65.5317 54.1616C65.5317 53.9352 65.571 53.7218 65.6497 53.5215C65.7371 53.3125 65.8638 53.1296 66.0298 52.9728C66.1958 52.816 66.4011 52.6941 66.6458 52.607C66.8904 52.5112 67.1744 52.4633 67.4977 52.4633C67.821 52.4633 68.1006 52.5112 68.3365 52.607C68.5811 52.6941 68.7864 52.816 68.9525 52.9728C69.1272 53.1296 69.267 53.3125 69.3719 53.5215C69.4767 53.7218 69.5554 53.9395 69.6078 54.1747H68.5593Z" fill="#CBCBDB"/>
<path d="M77.2855 50.0204H78.2554L81.7941 58.93H80.6014L79.6839 56.5262H75.7259L74.7953 58.93H73.642L77.2855 50.0204ZM76.0928 55.5595H79.317L78.3733 53.0512C78.3296 52.9293 78.2772 52.7943 78.216 52.6462C78.1636 52.4895 78.1068 52.3283 78.0457 52.1629C77.9932 51.9974 77.9408 51.8363 77.8884 51.6795C77.836 51.5227 77.7923 51.379 77.7573 51.2484H77.7049C77.6612 51.3877 77.6132 51.5358 77.5607 51.6926C77.5083 51.8493 77.4515 52.0104 77.3903 52.1759C77.3379 52.3327 77.2811 52.4895 77.22 52.6462C77.1675 52.7943 77.1151 52.9336 77.0627 53.0643L76.0928 55.5595Z" fill="#CBCBDB"/>
<path d="M85.657 52.4633C86.1026 52.4633 86.4915 52.5243 86.8235 52.6462C87.1555 52.7682 87.4351 52.9206 87.6623 53.1035C87.8982 53.2864 88.0817 53.4823 88.2128 53.6913C88.3438 53.9004 88.4356 54.0963 88.488 54.2792H87.3346C87.2123 54.0179 87.0113 53.8002 86.7317 53.626C86.4609 53.4518 86.1026 53.3647 85.657 53.3647C85.36 53.3647 85.076 53.417 84.8051 53.5215C84.5343 53.6173 84.2983 53.7697 84.0974 53.9787C83.8964 54.1791 83.7348 54.4316 83.6124 54.7365C83.4901 55.0413 83.429 55.394 83.429 55.7946C83.429 56.1517 83.4858 56.4783 83.5993 56.7744C83.7129 57.0705 83.8702 57.3275 84.0712 57.5452C84.2809 57.7629 84.5255 57.9328 84.8051 58.0547C85.0847 58.1766 85.3905 58.2376 85.7226 58.2376C86.2119 58.2376 86.5876 58.1331 86.8497 57.924C87.1118 57.7063 87.3041 57.4668 87.4264 57.2055H88.5797C88.5011 57.4407 88.3831 57.6758 88.2259 57.911C88.0773 58.1374 87.8851 58.3421 87.6492 58.525C87.422 58.7079 87.1468 58.8559 86.8235 58.9692C86.5089 59.0911 86.1376 59.1521 85.7095 59.1521C85.2202 59.1521 84.7702 59.0693 84.3595 58.9038C83.9576 58.7384 83.6037 58.5076 83.2979 58.2115C83.0008 57.9153 82.7693 57.5626 82.6033 57.1533C82.4373 56.7352 82.3542 56.278 82.3542 55.7816C82.3542 55.3287 82.4285 54.9019 82.5771 54.5013C82.7343 54.092 82.9571 53.7392 83.2455 53.4431C83.5338 53.1383 83.879 52.8988 84.2809 52.7246C84.6915 52.5504 85.1503 52.4633 85.657 52.4633Z" fill="#CBCBDB"/>
<path d="M96.0499 58.93H95.0145V58.0939H94.9883C94.7611 58.3726 94.4553 58.6208 94.0709 58.8385C93.6864 59.0475 93.2277 59.1521 92.6947 59.1521C92.2666 59.1521 91.8559 59.0737 91.4627 58.9169C91.0782 58.7601 90.7375 58.5337 90.4404 58.2376C90.1433 57.9415 89.9074 57.5887 89.7327 57.1794C89.5579 56.7701 89.4705 56.3085 89.4705 55.7946C89.4705 55.3156 89.5536 54.8714 89.7196 54.4621C89.8856 54.0528 90.1171 53.7 90.4142 53.4039C90.7113 53.1078 91.0564 52.877 91.4496 52.7115C91.8515 52.5461 92.2884 52.4633 92.7602 52.4633C93.0486 52.4633 93.3063 52.4982 93.5335 52.5678C93.7607 52.6375 93.966 52.7246 94.1495 52.8291C94.333 52.9336 94.4946 53.0512 94.6344 53.1818C94.7742 53.3125 94.8965 53.4431 95.0014 53.5738H95.0145V52.6723H96.0499V58.93ZM90.5453 55.7946C90.5453 56.0995 90.589 56.3999 90.6763 56.696C90.7724 56.9834 90.9166 57.2404 91.1088 57.4668C91.3011 57.6933 91.5413 57.8805 91.8297 58.0286C92.118 58.1679 92.4544 58.2376 92.8389 58.2376C93.1359 58.2376 93.4199 58.181 93.6908 58.0677C93.9616 57.9458 94.2019 57.7803 94.4116 57.5713C94.6213 57.3536 94.7873 57.101 94.9097 56.8136C95.0407 56.5175 95.1062 56.1909 95.1062 55.8338C95.1062 55.4593 95.0451 55.124 94.9228 54.8279C94.8092 54.5231 94.6475 54.2618 94.4378 54.0441C94.2369 53.8263 94.001 53.6609 93.7301 53.5476C93.4592 53.4257 93.1709 53.3647 92.8651 53.3647C92.4719 53.3647 92.1268 53.4344 91.8297 53.5738C91.5413 53.7131 91.3011 53.9004 91.1088 54.1355C90.9253 54.3619 90.7855 54.6232 90.6894 54.9193C90.5933 55.2067 90.5453 55.4985 90.5453 55.7946Z" fill="#CBCBDB"/>
<path d="M104.011 58.93H102.976V58.0939H102.949C102.722 58.3726 102.412 58.6208 102.019 58.8385C101.634 59.0475 101.163 59.1521 100.603 59.1521C100.175 59.1521 99.7689 59.0737 99.3844 58.9169C99 58.7601 98.6636 58.5337 98.3752 58.2376C98.0869 57.9415 97.8554 57.5887 97.6806 57.1794C97.5146 56.7701 97.4316 56.3085 97.4316 55.7946C97.4316 55.3243 97.5102 54.8845 97.6675 54.4752C97.8335 54.0658 98.0563 53.7131 98.3359 53.417C98.6155 53.1209 98.9475 52.8901 99.332 52.7246C99.7252 52.5504 100.149 52.4633 100.603 52.4633C100.9 52.4633 101.163 52.4938 101.39 52.5548C101.626 52.607 101.835 52.6811 102.019 52.7769C102.202 52.8727 102.368 52.9902 102.517 53.1296C102.674 53.2602 102.818 53.4039 102.949 53.5607H102.976V49.5239H104.011V58.93ZM98.5063 55.7946C98.5063 56.0995 98.5544 56.3999 98.6505 56.696C98.7466 56.9834 98.8908 57.2404 99.083 57.4668C99.2752 57.6933 99.5111 57.8805 99.7907 58.0286C100.079 58.1679 100.411 58.2376 100.787 58.2376C101.093 58.2376 101.381 58.181 101.652 58.0677C101.931 57.9458 102.176 57.7803 102.386 57.5713C102.595 57.3623 102.761 57.1097 102.884 56.8136C103.006 56.5175 103.067 56.1909 103.067 55.8338C103.067 55.4593 103.006 55.124 102.884 54.8279C102.77 54.5231 102.613 54.2618 102.412 54.0441C102.211 53.8263 101.971 53.6609 101.691 53.5476C101.42 53.4257 101.128 53.3647 100.813 53.3647C100.429 53.3647 100.092 53.4344 99.8038 53.5738C99.5155 53.7131 99.2752 53.896 99.083 54.1224C98.8908 54.3489 98.7466 54.6102 98.6505 54.9063C98.5544 55.1937 98.5063 55.4898 98.5063 55.7946Z" fill="#CBCBDB"/>
<path d="M108.512 52.4633C109.08 52.4633 109.56 52.5722 109.954 52.7899C110.356 52.9989 110.679 53.2646 110.923 53.5868C111.168 53.9004 111.343 54.2487 111.448 54.6319C111.561 55.0151 111.618 55.3766 111.618 55.7162C111.618 55.7772 111.614 55.8469 111.605 55.9253C111.605 56.0036 111.601 56.0603 111.592 56.0951H106.467C106.467 56.3825 106.529 56.6568 106.651 56.9181C106.773 57.1707 106.935 57.3971 107.136 57.5975C107.345 57.7891 107.581 57.9458 107.843 58.0677C108.114 58.181 108.398 58.2376 108.695 58.2376C109.071 58.2376 109.381 58.1723 109.626 58.0416C109.879 57.911 110.107 57.7237 110.307 57.4799H111.5C111.395 57.6802 111.26 57.8805 111.094 58.0808C110.937 58.2724 110.74 58.451 110.504 58.6164C110.277 58.7732 110.015 58.8995 109.718 58.9953C109.421 59.0998 109.089 59.1521 108.722 59.1521C108.224 59.1521 107.769 59.065 107.359 58.8908C106.948 58.7166 106.598 58.4771 106.31 58.1723C106.022 57.8587 105.795 57.4929 105.629 57.0749C105.471 56.6568 105.393 56.204 105.393 55.7162C105.393 55.2895 105.467 54.8801 105.615 54.4882C105.764 54.0876 105.974 53.7392 106.245 53.4431C106.515 53.147 106.843 52.9119 107.228 52.7377C107.612 52.5548 108.04 52.4633 108.512 52.4633ZM108.512 53.3647C108.215 53.3647 107.944 53.417 107.699 53.5215C107.463 53.626 107.258 53.7654 107.083 53.9395C106.909 54.1137 106.769 54.314 106.664 54.5405C106.568 54.7669 106.507 54.9977 106.48 55.2329H110.53C110.504 54.989 110.439 54.7539 110.334 54.5274C110.229 54.301 110.089 54.105 109.914 53.9395C109.74 53.7654 109.534 53.626 109.298 53.5215C109.062 53.417 108.8 53.3647 108.512 53.3647Z" fill="#CBCBDB"/>
<path d="M112.993 52.6723H114.028V53.4562H114.054C114.264 53.1775 114.526 52.9423 114.841 52.7507C115.155 52.5591 115.518 52.4633 115.928 52.4633C116.426 52.4633 116.859 52.5896 117.226 52.8422C117.593 53.086 117.842 53.3909 117.973 53.7567C118.052 53.5999 118.157 53.4475 118.288 53.2994C118.419 53.1426 118.576 53.0033 118.759 52.8814C118.943 52.7507 119.148 52.6506 119.375 52.5809C119.611 52.5025 119.865 52.4633 120.136 52.4633C120.843 52.4633 121.42 52.7028 121.866 53.1818C122.311 53.6609 122.534 54.3619 122.534 55.2851V58.93H121.499V55.2068C121.499 54.9629 121.468 54.7321 121.407 54.5144C121.354 54.2966 121.267 54.105 121.145 53.9395C121.022 53.7741 120.865 53.6434 120.673 53.5476C120.481 53.4431 120.254 53.3909 119.991 53.3909C119.773 53.3909 119.559 53.4301 119.349 53.5084C119.148 53.5868 118.969 53.7131 118.812 53.8873C118.655 54.0528 118.528 54.2661 118.432 54.5274C118.336 54.7887 118.288 55.0979 118.288 55.455V58.93H117.239V55.2068C117.239 54.9455 117.204 54.706 117.134 54.4882C117.064 54.2705 116.964 54.0789 116.833 53.9134C116.71 53.7479 116.558 53.6217 116.374 53.5346C116.191 53.4388 115.981 53.3909 115.745 53.3909C115.221 53.3909 114.801 53.5738 114.487 53.9395C114.181 54.2966 114.028 54.8018 114.028 55.455V58.93H112.993V52.6723Z" fill="#CBCBDB"/>
<path d="M125.54 62H124.544L125.684 58.93L123.377 52.6723H124.439L125.763 56.3172C125.789 56.3956 125.824 56.4914 125.868 56.6046C125.911 56.7178 125.951 56.8397 125.986 56.9704C126.029 57.0923 126.069 57.2142 126.104 57.3362C126.138 57.4494 126.165 57.5495 126.182 57.6366H126.208C126.278 57.4102 126.348 57.1925 126.418 56.9834C126.488 56.7657 126.562 56.5436 126.641 56.3172L127.952 52.6723H129L125.54 62Z" fill="#CBCBDB"/>
</g>
<defs>
<filter id="filter0_d_78_70" x="0" y="0" width="133" height="70" filterUnits="userSpaceOnUse" color-interpolation-filters="sRGB">
<feFlood flood-opacity="0" result="BackgroundImageFix"/>
<feColorMatrix in="SourceAlpha" type="matrix" values="0 0 0 0 0 0 0 0 0 0 0 0 0 0 0 0 0 0 127 0" result="hardAlpha"/>
<feOffset dy="4"/>
<feGaussianBlur stdDeviation="2"/>
<feComposite in2="hardAlpha" operator="out"/>
<feColorMatrix type="matrix" values="0 0 0 0 0.1875 0 0 0 0 0.173335 0 0 0 0 0.115385 0 0 0 0.22 0"/>
<feBlend mode="normal" in2="BackgroundImageFix" result="effect1_dropShadow_78_70"/>
<feBlend mode="normal" in="SourceGraphic" in2="effect1_dropShadow_78_70" result="shape"/>
</filter>
</defs>
</svg>
